<svg width="14" height="14" viewBox="0 0 14 14" fill="none" xmlns="http://www.w3.org/2000/svg">
<path d="M5.83329 10.4998C6.8687 10.4996 7.87426 10.153 8.68988 9.51517L11.2542 12.0795L12.079 11.2547L9.51471 8.69034C10.1529 7.87464 10.4997 6.86884 10.5 5.83317C10.5 3.26009 8.40638 1.1665 5.83329 1.1665C3.26021 1.1665 1.16663 3.26009 1.16663 5.83317C1.16663 8.40625 3.26021 10.4998 5.83329 10.4998ZM5.83329 2.33317C7.76354 2.33317 9.33329 3.90292 9.33329 5.83317C9.33329 7.76342 7.76354 9.33317 5.83329 9.33317C3.90304 9.33317 2.33329 7.76342 2.33329 5.83317C2.33329 3.90292 3.90304 2.33317 5.83329 2.33317Z" fill="white" fill-opacity="0.4"/>
</svg>
