<?xml version="1.0" encoding="UTF-8"?><svg xmlns="http://www.w3.org/2000/svg" xmlns:xlink="http://www.w3.org/1999/xlink" viewBox="0 0 968.17 963"><defs><style>.e{isolation:isolate;}.f{fill:url(#b);mix-blend-mode:hard-light;}.g{fill:url(#d);}.h{fill:url(#c);stroke:#231f20;stroke-miterlimit:10;}</style><linearGradient id="b" x1="300.16" y1="708.14" x2="758.53" y2="309.69" gradientTransform="matrix(1, 0, 0, 1, 0, 0)" gradientUnits="userSpaceOnUse"><stop offset="0" stop-color="#000"/><stop offset=".35" stop-color="#bc2026"/><stop offset=".7" stop-color="#ee3330"/><stop offset=".72" stop-color="#ee3d3a"/><stop offset=".78" stop-color="#f16261"/><stop offset=".84" stop-color="#f48080"/><stop offset=".89" stop-color="#f59596"/><stop offset=".95" stop-color="#f6a2a3"/><stop offset="1" stop-color="#f7a7a8"/></linearGradient><linearGradient id="c" x1="554.88" y1="630.23" x2="555.31" y2="629.85" xlink:href="#b"/><linearGradient id="d" x1="198.08" y1="641.98" x2="649.65" y2="249.44" xlink:href="#b"/></defs><g class="e"><g id="a"><path class="f" d="M801.92,490.64c-2.68,72.95-29.7,139.24-72.94,191.41-.1-.08-.19-.15-.29-.23-3.76,4.51-7.74,8.98-11.55,13.05-10.52,11.24-14.13,15.21-16.79,17.65,.11,.1,.22,.21,.33,.32-68.92,66.17-166.71,100.74-268.49,85.32-24.6-3.73-48.12-10.18-70.3-19l14.59-96.34,.78-5.2c-27.45-16.37-63.74-45.48-87.69-93.99-4.38-8.91-42.27-88.8-9.35-176.87,32.07-85.84,118.71-145.4,219.85-151.51-.91,8.78-1.79,17.59-2.68,26.39-96.35,17.7-162.78,96.88-161.07,179.15,1.84,89.3,83.08,140.98,89.23,144.74l-13.85,91.38-3.14,20.75c11.16,3.39,22.76,6.03,34.64,7.83,67.54,10.24,132.82-8.15,183.5-46.09,2.74-2.03,5.43-4.13,8.07-6.29,7.39-5.61,8.28-5.79,12.16-9.68,2.63-2.63,6.62-6.97,14.95-15.87,2.58-2.75,5.23-5.69,7.84-8.69-.1-.07-.2-.13-.3-.2,34.97-40.63,56.92-92.96,59.04-150.71,3.06-82.92-35.45-157.74-96.88-204.34-9.83-7.45-20.24-14.18-31.16-20.1l11.68-76.11c30.62,13.5,58.65,31.66,83.23,53.54,68.46,60.98,110.22,150.91,106.59,249.69Z"/><line class="h" x1="555.1" y1="630.48" x2="555.1" y2="629.61"/><path class="g" d="M583.74,307.4c-4.01-.57-7.99-.89-11.95-.99l4.85-34.55c.32-.05,.64-.11,.96-.17l10.22-72.89,2.54-17.57c-20.83-7.75-42.81-13.39-65.7-16.71-174.12-25.14-335.64,95.65-360.77,269.77-19.9,137.83,51.64,267.75,168.68,328.4l11.34-78.51c-76.51-50.7-121.26-142.51-107.27-239.39,19.34-133.94,143.6-226.83,277.52-207.51,4.94,.72,9.84,1.56,14.66,2.57l-5.03,35.86c.33,.01,.67,.03,1,.03l-29.78,212.39-30.02,214.03c6,4.96,13.41,8.38,21.68,9.54,11.03,1.55,21.68-1.19,30.27-6.95l9-64.19c-.29-.34-.57-.67-.87-1l17.48-124.64c3.83,.99,7.75,1.77,11.76,2.33,57.94,8.13,111.51-32.26,119.64-90.22,8.12-57.94-32.27-111.51-90.21-119.63Zm-50.54-57.16l1.28-9.15s.02,0,.04,.01l-1.32,9.14-.64,4.57h-.01l.65-4.57Z"/></g></g></svg>